# xmcd
#
# Track frame offsets:
#	150
#	28466
#	54405
#	87360
#	157016
#	199359
#	254198
#	281348
#	322561
#
# Disc length: 4754 seconds
#
# Revision: 0
# Processed by: cddbd v1.5.2PL0 Copyright (c) Steve Scherf et al.
# Submitted via: audiograbber 1.83.01
#
DISCID=80129009
DTITLE=Grateful Dead - 92-03-11 Nassau Veterans Memorial Coliseum, Uniondale NY
DYEAR=1900
DGENRE=
TTITLE0=China Cat Sunflower
TTITLE1=I Know You Rider
TTITLE2=Playing In The Band
TTITLE3=Terrapin Station
TTITLE4=Drums
TTITLE5=Space
TTITLE6=The Last Time
TTITLE7=Black Peter
TTITLE8=Around and Around
EXTD=
EXTT0=
EXTT1=
EXTT2=
EXTT3=
EXTT4=
EXTT5=
EXTT6=
EXTT7=
EXTT8=
PLAYORDER=
